<svg width="40" height="40" viewBox="0 0 40 40" fill="none" xmlns="http://www.w3.org/2000/svg">
<circle cx="20" cy="20" r="20" fill="white"/>
<path d="M20.2398 13.0106C15.7715 13.2449 12.822 16.7612 13.0083 21.1954C13.0897 23.1362 13.8673 24.8063 14.0515 26.6483C14.0986 27.1255 13.9615 27.7144 14.5099 27.9229C15.1846 28.1787 16.2192 27.7488 16.7847 27.3555C16.9775 27.2243 17.1617 27.0717 17.3031 26.8826C17.8878 27.2716 18.4426 27.6478 19.1388 27.8154C22.204 28.5526 25.5626 26.8654 27.0556 24.155C29.8617 19.0632 26.0682 12.7054 20.2398 13.0106ZM18.5047 23.637C18.2627 23.8262 18.0292 24.0841 17.7615 24.2324C17.3738 24.4409 17.2538 24.2238 17.1081 23.8799C16.6498 22.7859 16.5941 20.9224 16.8618 19.7768C17.2217 18.2185 18.4233 16.8472 20.0748 16.701C21.7456 16.5527 23.2964 17.4039 23.9968 18.9407C25.5477 22.3603 21.5785 25.737 18.5047 23.6392V23.637Z" fill="#16232B"/>
</svg>
